HIERARCHY
ROOT Hips
{
	OFFSET 0.000000 0.000000 0.000000
	CHANNELS 6 Xposition Yposition Zposition Zrotation Yrotation Xrotation 
	JOINT LowerBack
	{
		OFFSET 0.000000 0.000000 0.000000
		CHANNELS 3 Zrotation Yrotation Xrotation
		JOINT Spine
		{
			OFFSET 0.028270 2.035590 -0.193380
			CHANNELS 3 Zrotation Yrotation Xrotation
			JOINT Spine1
			{
				OFFSET 0.056720 2.048850 -0.042750
				CHANNELS 3 Zrotation Yrotation Xrotation
				JOINT Neck
				{
					OFFSET 0.000000 0.000000 0.000000
					CHANNELS 3 Zrotation Yrotation Xrotation
					JOINT Neck1
					{
						OFFSET -0.054170 1.746240 0.172020
						CHANNELS 3 Zrotation Yrotation Xrotation
						JOINT Head
						{
							OFFSET 0.104070 1.761360 -0.123970
							CHANNELS 3 Zrotation Yrotation Xrotation
							End Site
							{
								OFFSET 0.000000 0.000000 0.000000
							}
						}
					}
				}
				JOINT LeftShoulder
				{
					OFFSET 0.000000 0.000000 0.000000
					CHANNELS 3 Zrotation Yrotation Xrotation
					JOINT LeftArm
					{
						OFFSET 3.362410 1.200890 -0.311210
						CHANNELS 3 Zrotation Yrotation Xrotation
						JOINT LeftForeArm
						{
							OFFSET 4.983000 -0.000000 -0.000000
							CHANNELS 3 Zrotation Yrotation Xrotation
							JOINT LeftHand
							{
								OFFSET 3.483560 -0.000000 -0.000000
								CHANNELS 3 Zrotation Yrotation Xrotation
								JOINT LeftFingerBase
								{
									OFFSET 0.000000 0.000000 0.000000
									CHANNELS 3 Zrotation Yrotation Xrotation
									JOINT LeftHandIndex1
									{
										OFFSET 0.715260 -0.000000 -0.000000
										CHANNELS 3 Zrotation Yrotation Xrotation
										End Site
										{
											OFFSET 0.000000 0.000000 0.000000
										}
									}
								}
								JOINT LThumb
								{
									OFFSET 0.000000 0.000000 0.000000
									CHANNELS 3 Zrotation Yrotation Xrotation
									End Site
									{
										OFFSET 0.000000 0.000000 0.000000
									}
								}
							}
						}
					}
				}
				JOINT RightShoulder
				{
					OFFSET 0.000000 0.000000 0.000000
					CHANNELS 3 Zrotation Yrotation Xrotation
					JOINT RightArm
					{
						OFFSET -3.136600 1.374050 -0.404650
						CHANNELS 3 Zrotation Yrotation Xrotation
						JOINT RightForeArm
						{
							OFFSET -5.241900 -0.000000 -0.000000
							CHANNELS 3 Zrotation Yrotation Xrotation
							JOINT RightHand
							{
								OFFSET -3.444170 -0.000000 -0.000000
								CHANNELS 3 Zrotation Yrotation Xrotation
								JOINT RightFingerBase
								{
									OFFSET 0.000000 0.000000 0.000000
									CHANNELS 3 Zrotation Yrotation Xrotation
									JOINT RightHandIndex1
									{
										OFFSET -0.622530 -0.000000 -0.000000
										CHANNELS 3 Zrotation Yrotation Xrotation
										End Site
										{
											OFFSET 0.000000 0.000000 0.000000
										}
									}
								}
								JOINT RThumb
								{
									OFFSET 0.000000 0.000000 0.000000
									CHANNELS 3 Zrotation Yrotation Xrotation
									End Site
									{
										OFFSET 0.000000 0.000000 0.000000
									}
								}
							}
						}
					}
				}
			}
		}
	}
}
}
MOTION
Frames: 9
Frame Time: 0.008333
12.673739 20.148971 1.217279 23.130433 -84.272085 1.042970 0.403799 -0.803537 -6.404487 -0.252742 -0.915054 -4.915996 -3.855880 -0.818270 -4.960821 3.800817 -1.301467 7.016746 -2.066487 -0.356959 4.041872 0.000000 0.000000 0.000000 9.718943 -2.595764 -5.459251 -61.286064 -61.157001 -8.489001 176.210582 -64.229098 179.650543 21.380864 -4.660230 -1.083895 -0.228436 1.013867 -0.000000 0.000000 0.000000 0.000000 0.000000 0.000000 0.000000 -0.668110 -3.443740 -5.607579 53.171850 66.813021 -17.171674 -177.620412 79.952427 179.630164 -24.547787 16.529380 -3.875591 0.128314 -1.021324 -0.000000 0.000000 0.000000 0.000000 0.000000 0.000000 0.000000 
12.532044 20.257496 1.209512 22.987289 -84.257241 1.383089 0.484054 -0.782855 -6.295458 -0.241704 -0.900113 -4.880693 -3.849590 -0.799611 -4.897251 3.780526 -1.218251 7.137443 -2.060892 -0.357879 4.068222 0.000000 0.000000 0.000000 9.667910 -2.179348 -5.485628 -60.283984 -61.395430 -9.796788 175.984414 -62.454426 179.635233 22.287382 -5.211433 -1.245617 -0.262040 1.029598 -0.000000 0.000000 0.000000 0.000000 0.000000 0.000000 0.000000 -0.800291 -3.666661 -5.792373 52.068042 66.897428 -18.768195 -177.341305 77.999002 179.624529 -25.082675 16.627512 -3.988961 0.146158 -1.028342 -0.000000 0.000000 0.000000 0.000000 0.000000 0.000000 0.000000 
12.392273 20.356109 1.201656 22.753525 -84.235633 1.820312 0.571621 -0.760617 -6.181646 -0.230387 -0.884258 -4.843359 -3.850948 -0.780757 -4.826546 3.769394 -1.132370 7.256883 -2.057940 -0.358843 4.093947 0.000000 0.000000 0.000000 9.570996 -1.815008 -5.496958 -59.357629 -61.631385 -10.913568 175.805754 -60.888302 179.622280 23.072085 -5.757251 -1.408324 -0.293550 1.044869 -0.000000 0.000000 0.000000 0.000000 0.000000 0.000000 0.000000 -0.899566 -3.869377 -5.953071 51.097172 66.948513 -20.175138 -177.090712 76.207290 179.619618 -25.599197 16.736745 -4.103025 0.164138 -1.034545 -0.000000 0.000000 0.000000 0.000000 0.000000 0.000000 0.000000 
12.253996 20.444422 1.193576 22.469162 -84.211282 2.315710 0.659387 -0.737474 -6.071315 -0.219666 -0.867569 -4.805730 -3.857926 -0.761724 -4.750237 3.766978 -1.049165 7.372561 -2.057770 -0.359843 4.118559 0.000000 0.000000 0.000000 9.449144 -1.501301 -5.498368 -58.560452 -61.852093 -11.806624 175.673101 -59.533569 179.611827 23.712203 -6.287612 -1.566318 -0.321628 1.059762 -0.000000 0.000000 0.000000 0.000000 0.000000 0.000000 0.000000 -0.967738 -4.051771 -6.088283 50.273409 66.969729 -21.371826 -176.869705 74.585881 179.615283 -26.104887 16.844053 -4.215986 0.182138 -1.039844 -0.000000 0.000000 0.000000 0.000000 0.000000 0.000000 0.000000 
12.116739 20.522191 1.185230 22.164590 -84.187630 2.840123 0.742857 -0.714007 -5.970430 -0.209917 -0.850259 -4.769181 -3.868363 -0.742604 -4.669644 3.771474 -0.973683 7.481862 -2.060500 -0.360872 4.141524 0.000000 0.000000 0.000000 9.322159 -1.234828 -5.494254 -57.936035 -62.045059 -12.453339 175.582562 -58.386060 179.603872 24.195116 -6.789206 -1.712993 -0.345297 1.074181 -0.000000 0.000000 0.000000 0.000000 0.000000 0.000000 0.000000 -1.008369 -4.213892 -6.197448 49.608076 66.964919 -22.340942 -176.678697 73.144578 179.611414 -26.602114 16.936031 -4.324639 0.199928 -1.044109 -0.000000 0.000000 0.000000 0.000000 0.000000 0.000000 0.000000 
11.980100 20.588712 1.176639 21.862537 -84.167572 3.369255 0.819136 -0.690855 -5.882796 -0.201275 -0.832730 -4.734708 -3.880459 -0.723662 -4.586044 3.780390 -0.910363 7.582705 -2.066305 -0.361927 4.162430 0.000000 0.000000 0.000000 9.206508 -1.011218 -5.488201 -57.515037 -62.198647 -12.842045 175.528797 -57.436107 179.598232 24.521491 -7.252926 -1.843750 -0.364059 1.088033 -0.000000 0.000000 0.000000 0.000000 0.000000 0.000000 0.000000 -1.025751 -4.356501 -6.281197 49.108378 66.938864 -23.070954 -176.516853 71.887760 179.607948 -27.086667 17.000924 -4.425186 0.217157 -1.047243 -0.000000 0.000000 0.000000 0.000000 0.000000 0.000000 0.000000 
11.843872 20.644149 1.167948 21.567395 -84.153796 3.893432 0.888476 -0.668531 -5.808064 -0.193390 -0.815490 -4.702576 -3.893036 -0.705242 -4.500832 3.791689 -0.862286 7.673806 -2.075398 -0.363014 4.181036 0.000000 0.000000 0.000000 9.112658 -0.826453 -5.482591 -57.309816 -62.303959 -12.976431 175.506543 -56.674192 179.594664 24.701285 -7.669807 -1.954691 -0.377815 1.101101 -0.000000 0.000000 0.000000 0.000000 0.000000 0.000000 0.000000 -1.023191 -4.480337 -6.341026 48.776515 66.897068 -23.556127 -176.382631 70.814690 179.604869 -27.549006 17.030020 -4.513228 0.233404 -1.049189 -0.000000 0.000000 0.000000 0.000000 0.000000 0.000000 0.000000 
11.707609 20.688112 1.159263 21.296542 -84.148255 4.395335 0.950411 -0.647453 -5.746298 -0.186253 -0.798925 -4.672960 -3.905554 -0.687616 -4.414500 3.803571 -0.830971 7.754512 -2.087940 -0.364137 4.197216 0.000000 0.000000 0.000000 9.045276 -0.675679 -5.478664 -57.313976 -62.356486 -12.873826 175.510806 -56.085700 179.592831 24.753760 -8.037532 -2.044915 -0.386915 1.113263 -0.000000 0.000000 0.000000 0.000000 0.000000 0.000000 0.000000 -1.003289 -4.586550 -6.378905 48.609631 66.844747 -23.798615 -176.274472 69.921284 179.602217 -27.974635 17.018047 -4.584264 0.248206 -1.049937 -0.000000 0.000000 0.000000 0.000000 0.000000 0.000000 0.000000 
11.571244 20.720778 1.150710 21.050752 -84.152717 4.869037 1.006833 -0.627852 -5.693548 -0.179497 -0.783381 -4.645341 -3.917920 -0.671008 -4.327964 3.814916 -0.815940 7.825261 -2.103911 -0.365303 4.211094 0.000000 0.000000 0.000000 9.003054 -0.554669 -5.476673 -57.504436 -62.355846 -12.564849 175.537123 -55.654337 179.592408 24.702786 -8.354759 -2.114623 -0.391996 1.124350 -0.000000 0.000000 0.000000 0.000000 0.000000 0.000000 0.000000 -0.968135 -4.675943 -6.397592 48.598476 66.787975 -23.808394 -176.190172 69.195231 179.600058 -28.346318 16.963255 -4.634496 0.261125 -1.049562 -0.000000 0.000000 0.000000 0.000000 0.000000 0.000000 0.000000 
